<?xml version="1.0" standalone="no"?>
<!DOCTYPE svg PUBLIC "-//W3C//DTD SVG 20010904//EN"
 "http://www.w3.org/TR/2001/REC-SVG-20010904/DTD/svg10.dtd">
<svg version="1.0" xmlns="http://www.w3.org/2000/svg"
 width="4096.000000pt" height="4616.000000pt" viewBox="0 0 4096.000000 4616.000000"
 preserveAspectRatio="xMidYMid meet">

<g transform="translate(0.000000,4616.000000) scale(0.100000,-0.100000)"
fill="#000000" stroke="none">
<path d="M11157 42054 c-12 -13 -8 -30 20 -70 14 -21 34 -70 44 -108 25 -91
59 -159 119 -230 27 -33 59 -85 71 -115 30 -78 61 -138 84 -164 43 -47 65 -87
89 -160 30 -92 36 -103 92 -180 24 -32 44 -68 44 -78 0 -10 5 -19 10 -19 6 0
10 -7 10 -16 0 -45 47 -164 84 -214 49 -66 67 -106 101 -225 29 -102 57 -164
95 -215 31 -40 56 -105 65 -170 14 -94 38 -168 86 -267 36 -72 55 -126 65
-185 34 -189 77 -372 99 -423 47 -106 77 -272 94 -515 6 -75 20 -196 31 -270
52 -327 62 -444 63 -715 1 -137 -2 -286 -6 -330 -16 -175 -27 -272 -36 -320
-15 -79 -39 -268 -51 -410 -16 -195 -44 -332 -94 -458 -27 -70 -52 -157 -66
-232 -31 -165 -54 -240 -94 -307 -39 -64 -67 -140 -91 -248 -17 -74 -56 -170
-80 -200 -28 -33 -54 -91 -80 -176 -32 -106 -54 -153 -103 -216 -20 -26 -44
-67 -53 -90 -9 -24 -27 -69 -39 -100 -12 -31 -42 -82 -66 -113 -24 -31 -61
-94 -83 -138 -21 -45 -57 -102 -80 -127 -23 -25 -59 -79 -81 -120 -21 -41 -57
-95 -79 -120 -23 -25 -68 -84 -100 -132 -33 -47 -78 -104 -99 -125 -22 -21
-50 -59 -62 -85 -13 -28 -44 -66 -79 -96 -46 -40 -62 -63 -79 -110 -17 -46
-31 -65 -67 -91 -48 -34 -58 -65 -26 -76 20 -6 61 13 61 27 0 5 7 8 15 8 7 0
18 6 22 13 4 7 22 18 38 24 17 6 39 14 50 19 11 4 25 8 30 9 34 5 133 64 179
106 30 27 83 63 118 78 35 16 96 54 136 85 40 31 106 71 145 90 40 20 90 52
112 72 22 20 69 55 105 79 36 24 81 59 100 79 19 20 71 61 115 91 44 30 108
81 142 113 34 33 77 65 95 73 18 7 59 39 91 71 32 32 60 58 63 58 7 0 49 37
128 114 34 32 72 64 86 71 26 14 212 203 267 271 40 50 65 76 95 100 13 10 44
46 68 79 24 33 60 75 80 92 21 18 59 73 85 123 26 49 51 90 56 90 4 0 10 9 14
19 3 11 15 23 26 26 10 4 27 21 36 38 8 18 19 34 22 37 4 3 15 24 25 47 10 23
26 50 35 60 79 88 103 123 126 184 15 38 32 75 38 82 28 29 97 127 97 137 0 6
4 18 9 28 5 9 17 49 27 87 18 75 69 191 94 215 24 23 42 76 65 191 15 74 38
166 52 204 57 155 99 334 107 458 10 131 7 553 -4 662 -5 55 -12 129 -16 165
-6 67 -33 163 -78 284 -30 80 -30 81 -56 238 -23 134 -41 194 -79 258 -46 79
-61 116 -91 239 -25 99 -38 127 -95 201 -23 30 -57 93 -75 140 -37 94 -42 104
-92 158 -39 42 -63 87 -73 134 -10 45 -38 97 -72 134 -44 48 -68 85 -98 147
-15 32 -51 84 -80 115 -29 31 -69 90 -90 131 -21 41 -59 95 -84 120 -26 25
-62 72 -80 104 -18 31 -50 72 -72 90 -21 17 -57 59 -80 92 -22 33 -57 72 -76
87 -19 14 -62 62 -96 105 -121 154 -823 836 -916 891 -35 20 -76 54 -90 74
-14 20 -42 46 -61 57 -48 29 -96 74 -114 109 -8 15 -22 35 -31 42 -21 18 -125
60 -147 60 -10 0 -18 5 -18 11 0 5 -5 7 -12 3 -6 -4 -8 -3 -5 3 8 12 -36 67
-46 57z"/>
<path d="M10095 36553 c-16 -9 -39 -25 -50 -37 -11 -12 -59 -43 -107 -70 -49
-27 -88 -53 -88 -57 0 -5 -6 -9 -13 -9 -7 0 -31 -19 -52 -41 -22 -23 -64 -57
-93 -76 -29 -19 -77 -58 -108 -88 -30 -30 -76 -69 -102 -86 -26 -18 -69 -53
-97 -79 -27 -27 -75 -64 -106 -83 -31 -20 -80 -57 -110 -84 -30 -27 -79 -67
-109 -90 -30 -22 -83 -68 -117 -102 -34 -33 -67 -61 -73 -61 -6 0 -53 -42
-105 -92 -52 -51 -131 -128 -177 -170 -71 -67 -251 -245 -400 -396 -24 -24
-60 -60 -80 -80 -21 -19 -38 -39 -38 -44 0 -5 -33 -42 -72 -82 -93 -93 -205
-217 -259 -287 -24 -30 -67 -81 -96 -114 -30 -33 -71 -85 -91 -115 -20 -30
-59 -78 -87 -106 -28 -27 -70 -75 -92 -105 -23 -29 -59 -73 -80 -96 -22 -23
-54 -69 -72 -103 -18 -33 -55 -86 -82 -117 -28 -32 -66 -90 -86 -129 -19 -40
-57 -97 -83 -126 -26 -29 -62 -84 -80 -122 -19 -38 -56 -97 -82 -130 -27 -34
-63 -90 -79 -126 -49 -104 -63 -130 -84 -153 -39 -42 -62 -83 -92 -168 -17
-47 -43 -104 -59 -128 -80 -118 -91 -141 -108 -228 -22 -108 -42 -163 -99
-274 -42 -83 -67 -172 -82 -294 -4 -27 -11 -68 -16 -90 -30 -119 -43 -164 -56
-205 -52 -160 -68 -312 -68 -655 0 -315 11 -454 46 -575 7 -25 12 -49 10 -53
-1 -5 8 -23 19 -42 11 -18 20 -41 20 -52 0 -10 4 -23 8 -28 5 -6 19 -66 31
-135 39 -223 55 -280 99 -345 22 -33 39 -62 37 -64 -3 -2 2 -13 10 -25 8 -11
15 -30 15 -43 0 -12 5 -25 10 -28 6 -3 10 -19 10 -34 0 -54 45 -148 97 -200
18 -19 33 -40 33 -48 0 -7 4 -13 8 -13 5 0 15 -19 22 -42 7 -24 20 -59 31 -78
16 -32 28 -47 93 -120 12 -14 36 -56 54 -95 20 -41 55 -92 88 -127 30 -31 61
-73 69 -92 8 -19 41 -64 73 -98 32 -35 82 -97 110 -138 28 -41 84 -106 123
-145 39 -38 77 -81 86 -95 8 -14 30 -36 48 -49 19 -13 80 -63 137 -113 57 -50
119 -100 138 -113 19 -12 67 -53 105 -91 39 -38 97 -89 129 -112 32 -24 60
-52 63 -61 2 -10 32 -35 66 -57 34 -21 85 -61 113 -88 29 -27 89 -69 134 -93
46 -24 108 -63 139 -87 31 -24 86 -57 121 -74 41 -19 88 -52 128 -91 34 -34
67 -61 72 -61 6 0 30 -9 52 -20 23 -11 47 -20 54 -20 7 0 35 -16 64 -35 29
-19 55 -35 58 -35 3 0 15 -8 26 -19 32 -29 237 -103 293 -106 23 -1 40 26 29
44 -3 4 -7 23 -10 42 -7 56 -22 81 -78 135 -51 50 -61 65 -108 166 -12 26 -41
73 -65 103 -23 31 -53 84 -65 118 -29 82 -63 157 -72 157 -5 0 -8 4 -8 10 0 5
-18 33 -39 62 -24 30 -45 73 -52 102 -20 85 -48 147 -98 216 -49 67 -69 113
-91 210 -7 30 -28 84 -48 120 -82 151 -104 208 -116 305 -12 95 -29 150 -72
242 -55 116 -79 207 -94 353 -12 117 -23 163 -78 350 -17 58 -36 134 -42 170
-6 36 -13 76 -15 90 -3 14 -7 52 -10 85 -3 33 -8 66 -10 72 -17 51 -26 985
-12 1393 12 372 29 516 80 675 2 6 9 37 17 70 7 33 16 65 20 70 13 18 39 158
54 290 16 138 54 288 87 342 12 18 17 33 14 33 -4 0 -3 6 3 13 14 16 27 70 57
227 29 154 48 216 79 263 36 52 63 118 76 184 35 171 46 202 125 335 27 46 50
106 46 120 -1 2 12 41 28 86 17 46 47 107 69 135 52 70 58 82 82 171 23 87 60
167 93 201 27 27 48 70 77 155 29 88 60 148 85 168 27 21 57 77 91 167 15 39
35 79 45 91 11 11 19 25 19 31 0 6 6 13 14 16 15 6 31 32 66 107 12 25 28 60
37 77 8 18 30 50 49 70 19 20 36 45 40 55 3 10 9 18 13 18 5 0 20 27 35 61 27
63 68 127 109 170 13 14 36 46 50 71 40 73 73 121 105 155 33 35 92 128 92
144 0 18 42 71 97 123 29 27 53 53 53 58 0 28 41 89 92 139 59 57 63 71 35
107 -13 17 -56 15 -92 -5z"/>
<path d="M19835 35410 c-91 -8 -141 -32 -154 -73 -20 -65 -28 -171 -36 -482
-3 -132 -8 -247 -10 -255 -2 -8 -9 -71 -15 -140 -11 -126 -31 -246 -50 -294
-11 -30 -49 -209 -56 -270 -3 -23 -10 -66 -15 -96 -5 -30 -14 -127 -19 -215
-10 -166 -21 -274 -45 -435 -23 -149 -58 -309 -67 -304 -5 3 -15 0 -24 -6 -16
-14 -156 -9 -299 10 -44 5 -116 12 -160 15 -44 3 -107 7 -140 10 -349 24 -468
26 -1440 22 -572 -2 -1049 -7 -1060 -9 -11 -3 -81 -9 -155 -12 -160 -8 -496
-34 -525 -41 -11 -2 -47 -7 -80 -10 -33 -3 -82 -10 -110 -15 -187 -36 -362
-60 -500 -70 -253 -17 -496 -45 -530 -61 -11 -5 -31 -11 -45 -13 -24 -5 -45
-11 -195 -55 -38 -12 -155 -35 -260 -51 -185 -28 -388 -72 -409 -89 -11 -8
-99 -29 -321 -76 -126 -27 -185 -50 -252 -99 -40 -29 -107 -52 -197 -66 -90
-14 -217 -49 -236 -64 -8 -7 -31 -20 -50 -30 -19 -9 -42 -20 -50 -25 -51 -27
-83 -41 -95 -41 -35 0 -174 -55 -216 -86 -38 -27 -100 -61 -129 -69 -3 -1 -18
-5 -35 -9 -165 -40 -200 -53 -239 -86 -58 -50 -82 -64 -175 -101 -58 -23 -99
-48 -142 -85 -32 -30 -85 -70 -117 -90 -31 -20 -78 -55 -103 -78 -26 -23 -76
-57 -113 -76 -37 -19 -88 -53 -114 -76 -26 -23 -85 -66 -130 -97 -46 -30 -104
-75 -130 -99 -26 -25 -66 -57 -88 -72 -23 -15 -61 -51 -85 -79 -23 -29 -67
-74 -96 -101 -30 -26 -60 -60 -67 -75 -8 -15 -46 -58 -85 -96 -39 -39 -71 -73
-71 -77 0 -13 -64 -103 -98 -136 -39 -39 -69 -87 -102 -162 -13 -30 -45 -82
-71 -115 -50 -66 -63 -88 -107 -186 -17 -37 -50 -96 -75 -132 -40 -59 -73
-148 -93 -250 -8 -43 -47 -153 -65 -183 -56 -93 -95 -301 -68 -366 23 -57 43
-69 164 -94 87 -18 127 -28 235 -53 120 -29 271 -48 525 -66 311 -21 431 -38
615 -85 196 -50 283 -63 600 -85 118 -8 231 -17 250 -20 19 -3 55 -8 80 -10
61 -8 261 -52 335 -75 33 -11 114 -24 180 -30 66 -7 122 -13 125 -15 7 -4 118
-13 255 -20 183 -9 445 -45 470 -65 6 -4 24 -10 40 -13 17 -2 73 -14 125 -25
52 -11 115 -23 140 -26 25 -3 79 -9 121 -15 42 -6 163 -15 270 -21 107 -6 201
-13 211 -16 9 -2 51 -9 95 -15 43 -5 87 -11 98 -14 35 -8 138 -34 180 -45 124
-32 293 -57 490 -70 216 -14 275 -19 375 -31 100 -12 277 -46 305 -59 50 -22
288 -60 475 -74 113 -9 259 -21 325 -27 122 -10 334 -44 370 -59 24 -11 87
-25 97 -22 4 1 25 -4 45 -12 46 -17 335 -51 563 -66 138 -9 233 -20 365 -43
11 -2 27 -7 35 -10 27 -11 363 -76 445 -86 44 -5 127 -13 185 -16 58 -3 125
-8 150 -10 25 -3 74 -7 110 -10 36 -3 85 -8 110 -12 25 -3 52 -7 60 -8 61 -7
125 -20 187 -37 40 -10 94 -23 120 -28 27 -4 98 -17 158 -29 134 -24 169 -29
310 -36 215 -11 476 -40 505 -55 8 -4 35 -11 60 -15 25 -4 90 -17 145 -30 147
-35 257 -53 370 -59 417 -26 553 -44 875 -121 117 -27 204 -38 495 -60 230
-18 478 -50 538 -70 23 -7 67 -18 97 -25 30 -7 82 -18 115 -25 33 -7 92 -16
130 -19 39 -4 102 -11 140 -16 39 -5 122 -12 185 -15 130 -7 232 -16 241 -21
3 -2 44 -8 90 -14 79 -10 148 -22 194 -33 11 -3 56 -14 100 -26 147 -37 357
-64 615 -76 63 -4 126 -8 140 -11 14 -2 51 -6 83 -9 32 -3 86 -12 120 -20 34
-7 76 -16 92 -18 17 -3 66 -15 110 -27 133 -36 316 -62 530 -75 126 -7 214
-15 240 -20 11 -2 49 -7 85 -10 117 -10 153 -17 286 -50 212 -54 341 -71 744
-100 87 -6 299 -31 335 -40 11 -2 47 -11 80 -20 54 -14 176 -42 280 -65 22 -4
108 -13 190 -20 346 -26 521 -41 537 -46 20 -6 40 -10 98 -18 43 -7 213 -47
275 -66 17 -5 53 -12 80 -15 28 -3 84 -10 125 -15 41 -5 170 -16 285 -25 116
-8 230 -18 255 -21 75 -9 378 -69 455 -90 28 -7 70 -16 95 -19 25 -3 77 -10
117 -15 39 -5 152 -14 250 -20 98 -6 241 -20 318 -31 166 -24 165 -24 187 -33
18 -8 24 -10 91 -21 26 -4 47 -11 47 -16 0 -4 8 -8 18 -7 9 0 85 -9 167 -20
146 -20 208 -25 425 -38 108 -6 383 -32 410 -38 33 -8 100 -40 100 -47 0 -5
-6 -6 -14 -3 -8 3 -17 -3 -20 -14 -6 -19 -75 -39 -161 -48 -16 -2 -48 -5 -70
-8 -22 -3 -96 -8 -165 -12 -69 -3 -5727 -7 -12575 -8 l-12450 -1 -47 -22 c-25
-11 -51 -31 -58 -43 -8 -15 -12 -187 -13 -602 l-2 -580 24 -29 c61 -74 115
-80 688 -77 541 3 512 7 555 -75 l22 -42 2 -1180 c0 -649 -2 -1204 -6 -1233
-8 -65 -37 -106 -77 -110 -37 -4 -73 24 -109 85 -15 27 -51 71 -80 98 -29 28
-63 67 -77 88 -14 21 -54 69 -89 106 -35 38 -79 90 -98 117 -19 26 -60 73 -90
103 -30 31 -64 70 -74 86 -11 17 -49 62 -86 100 -36 39 -79 89 -94 112 -15 23
-38 48 -50 56 -34 24 -69 59 -108 112 -20 28 -57 66 -82 85 -24 19 -59 58 -76
87 -32 52 -64 74 -130 89 -19 4 -886 7 -1926 7 -1590 0 -1895 -3 -1919 -14
-38 -19 -64 -72 -66 -139 -1 -30 -1 -527 -2 -1105 0 -577 0 -1085 0 -1127 -1
-89 15 -117 81 -136 28 -9 551 -12 1913 -12 1030 0 1885 -2 1899 -5 14 -2 35
-4 47 -4 26 -1 79 -44 103 -84 10 -15 52 -63 94 -106 41 -43 73 -80 71 -83 -3
-3 25 -34 62 -68 38 -35 84 -85 104 -112 20 -26 62 -76 92 -111 31 -34 78 -91
104 -127 26 -36 60 -75 74 -87 14 -12 46 -48 70 -80 24 -32 71 -85 105 -118
33 -33 73 -77 87 -98 14 -22 50 -61 80 -88 30 -27 67 -68 82 -91 15 -24 47
-59 72 -78 52 -41 78 -86 90 -156 5 -27 8 -1487 8 -3244 0 -1757 2 -3238 6
-3290 10 -154 42 -181 215 -184 107 -1 140 9 239 75 22 14 65 39 95 54 60 30
211 168 273 250 21 28 55 70 75 94 39 46 82 125 82 152 0 40 63 206 100 264
10 17 19 40 19 52 1 12 5 24 10 27 38 24 77 888 52 1146 -6 52 -12 151 -16
220 -3 69 -8 141 -11 160 -8 46 -40 140 -75 217 -30 65 -58 178 -84 330 -18
105 -34 154 -75 235 -52 99 -70 156 -81 256 -15 137 -44 279 -84 407 -30 99
-43 149 -49 195 -2 8 -5 24 -9 35 -26 86 -46 1124 -26 1395 13 175 26 227 85
347 40 80 59 141 80 257 11 62 46 155 65 171 10 10 19 24 19 32 0 7 4 13 9 13
5 0 26 44 46 98 64 167 68 176 111 232 37 50 53 77 59 105 48 202 52 211 106
270 42 46 69 116 80 212 7 56 11 688 12 1736 l2 1649 36 33 c29 26 49 35 90
40 30 3 606 4 1281 3 l1226 -3 27 -25 c15 -14 34 -38 42 -54 13 -25 15 -652
14 -5489 0 -5784 -2 -5489 42 -5526 12 -9 19 -6 40 19 14 16 29 40 33 52 9 31
82 138 94 138 14 0 58 100 70 155 34 171 52 659 30 844 -6 52 -11 138 -11 191
0 81 3 104 22 139 52 100 105 67 166 -104 23 -63 57 -122 88 -150 6 -5 28 -32
49 -58 21 -27 77 -86 123 -133 102 -101 122 -109 288 -109 190 0 249 28 278
132 9 32 26 76 37 98 11 21 20 43 20 47 0 5 11 25 25 46 37 56 54 127 50 207
-4 85 -14 133 -59 278 -51 167 -65 217 -82 307 -18 96 -34 137 -94 245 -24 44
-46 85 -47 90 -33 147 -69 241 -113 297 -17 20 -30 43 -30 51 0 8 -6 20 -14
26 -7 6 -16 30 -20 54 -13 86 -50 213 -72 252 -50 89 -83 192 -94 297 -13 135
-17 164 -34 283 -8 55 -17 129 -20 165 -4 36 -13 90 -22 120 -8 30 -17 64 -19
75 -3 11 -8 36 -13 55 -12 55 -4 195 17 267 6 24 13 61 16 83 2 22 11 70 19
107 9 38 25 120 36 183 28 152 44 196 95 250 24 25 54 68 68 95 14 28 55 80
91 118 36 37 81 91 100 120 18 28 49 68 67 87 38 40 66 79 94 133 11 22 41 62
67 90 26 29 66 90 90 136 48 95 54 104 86 133 12 12 22 28 22 35 0 7 3 13 8
13 10 0 46 73 77 160 15 41 37 89 49 105 59 82 82 147 106 300 13 81 52 170
77 177 25 7 43 -1 43 -18 0 -8 4 -14 10 -14 5 0 16 -15 24 -33 40 -91 55 -262
33 -392 -9 -49 -21 -142 -27 -205 -16 -174 -42 -274 -97 -377 -23 -44 -45
-126 -63 -233 -16 -97 -48 -195 -86 -261 -45 -80 -64 -153 -99 -374 -16 -100
-45 -209 -73 -274 -28 -65 -68 -278 -78 -411 -3 -36 -9 -101 -14 -145 -13
-103 -13 -563 0 -685 19 -182 39 -283 67 -338 15 -28 31 -52 35 -52 10 0 42
-63 68 -133 24 -64 161 -216 250 -278 30 -20 69 -51 85 -67 45 -43 63 -50 155
-61 133 -17 266 15 330 79 11 11 44 33 73 50 74 41 93 65 123 151 23 68 82
197 94 209 16 15 30 67 36 132 6 72 -9 215 -26 247 -22 39 -73 156 -82 184
-26 89 -48 184 -48 213 0 45 -17 79 -47 95 -32 17 -45 43 -37 75 6 22 10 25
32 19 27 -7 73 -50 69 -64 -1 -5 1 -10 5 -10 5 -1 34 -11 65 -22 67 -25 97
-49 123 -99 10 -19 38 -51 61 -70 66 -53 139 -130 139 -145 0 -3 19 -24 42
-48 24 -24 50 -57 58 -73 8 -16 19 -32 25 -36 5 -4 6 -8 1 -8 -10 0 12 -36 65
-105 48 -63 73 -123 87 -205 7 -36 24 -105 38 -155 25 -87 41 -158 50 -220 2
-16 6 -45 9 -64 3 -18 5 -300 6 -625 0 -573 -1 -593 -21 -671 -53 -197 -70
-350 -73 -660 -2 -324 10 -385 100 -503 19 -26 47 -71 61 -100 15 -31 43 -68
69 -90 25 -20 70 -60 101 -87 64 -57 115 -79 219 -94 145 -22 442 -8 534 24
42 15 228 180 247 219 6 11 25 50 42 86 17 36 40 82 51 103 49 93 49 106 51
845 0 381 4 712 8 735 4 23 11 99 14 168 7 143 29 283 48 308 21 26 52 50 73
57 11 4 23 11 26 16 3 5 16 10 28 11 14 1 20 6 16 15 -3 10 0 12 10 8 10 -3
15 1 15 12 0 10 9 25 20 35 20 17 20 16 14 -9 -5 -18 -3 -25 4 -20 6 4 10 -1
9 -13 -1 -11 -3 -18 -5 -16 -8 8 -62 -60 -58 -72 3 -7 1 -13 -4 -13 -12 0 -3
-59 20 -140 21 -72 80 -360 105 -515 43 -264 58 -312 117 -388 16 -20 27 -37
23 -37 -3 0 0 -7 8 -15 9 -8 25 -45 36 -83 17 -54 34 -83 80 -134 32 -36 77
-92 100 -125 45 -65 156 -169 211 -199 29 -16 56 -19 160 -19 164 0 218 19
270 98 19 28 62 81 96 117 65 70 85 114 103 225 24 144 31 177 57 290 5 18 23
133 29 180 1 11 5 27 8 35 19 47 38 150 37 194 -1 28 -1 56 0 61 1 6 2 13 1
17 0 3 0 84 0 180 0 426 -2 685 -6 713 -2 17 -7 57 -10 90 -4 33 -16 84 -26
113 -23 64 -25 125 -4 142 9 7 14 19 11 27 -3 8 2 25 11 39 13 21 16 63 19
259 1 129 5 239 8 244 3 5 11 96 16 202 12 201 30 318 58 379 9 19 17 38 17
43 0 4 4 7 8 7 4 -1 25 18 45 41 20 24 45 51 54 60 10 11 13 21 7 24 -5 4 -7
10 -4 15 3 5 8 55 11 112 9 177 45 242 102 185 23 -24 25 -33 26 -124 1 -88
-2 -104 -26 -154 -16 -31 -28 -63 -28 -72 0 -10 -4 -17 -10 -17 -5 0 -12 -16
-16 -35 -3 -19 -10 -35 -15 -35 -4 0 -9 -12 -9 -27 -5 -86 0 -717 5 -763 6
-49 30 -130 66 -215 17 -42 16 -36 39 -180 34 -216 51 -268 113 -356 22 -30
41 -75 56 -135 37 -148 61 -221 76 -234 8 -7 15 -17 15 -22 0 -6 9 -23 21 -39
27 -38 62 -144 83 -249 9 -47 21 -98 27 -115 12 -32 14 -37 55 -130 43 -98 67
-229 79 -420 7 -118 12 -183 24 -285 4 -41 9 -319 9 -617 1 -581 3 -599 52
-650 14 -15 52 -61 84 -101 65 -82 99 -103 206 -127 180 -39 231 -40 413 -4
147 28 181 52 211 149 10 30 36 89 58 130 100 187 108 216 108 399 0 189 -22
296 -88 442 -27 60 -36 88 -46 144 -2 11 -7 38 -12 60 -4 22 -9 45 -9 50 -2
10 -9 39 -27 115 -14 58 -47 129 -71 153 -35 35 -67 130 -91 272 -8 50 -22
113 -30 140 -8 28 -23 86 -34 130 -11 44 -30 114 -43 155 -19 60 -24 97 -24
190 0 119 19 235 42 258 7 7 13 21 13 29 0 9 6 24 14 32 18 21 61 149 75 225
11 61 53 145 93 189 23 25 39 53 97 177 17 36 39 75 49 86 39 41 69 100 86
169 9 39 22 90 28 115 11 42 47 129 88 210 9 19 20 47 24 63 7 31 9 525 2 574
-3 18 -23 88 -44 155 -56 174 -59 186 -78 348 -13 115 -16 195 -11 390 3 155
10 258 18 280 6 19 35 71 64 115 38 58 58 103 74 165 34 132 51 165 93 191 41
25 65 30 86 15 8 -5 12 -4 12 5 0 8 9 3 20 -11 22 -29 26 -88 10 -171 -38
-193 -42 -778 -7 -914 9 -34 27 -77 66 -160 22 -44 54 -114 74 -155 38 -82 97
-151 167 -193 74 -45 85 -52 90 -58 10 -10 85 -54 124 -72 43 -19 122 -22 178
-7 20 6 59 27 85 48 26 20 65 46 86 57 55 29 88 70 144 180 26 54 54 107 60
120 24 42 40 169 42 315 1 160 -14 242 -69 375 -15 39 -38 107 -49 152 -39
154 -84 258 -127 298 -12 11 -40 84 -70 180 -20 66 -52 135 -63 135 -16 0 -70
111 -86 175 -22 96 -43 160 -72 225 -14 30 -26 60 -28 65 -1 6 -5 19 -9 30 -5
11 -14 36 -21 55 -7 19 -21 73 -31 120 -17 75 -19 131 -19 465 0 479 8 530 92
606 53 48 77 84 97 147 9 30 26 63 36 75 18 18 23 19 44 7 20 -10 26 -23 31
-65 7 -49 3 -74 -23 -176 -13 -53 -15 -209 -3 -209 6 0 11 -8 11 -19 0 -10 7
-35 15 -54 10 -24 15 -69 15 -130 0 -99 30 -298 57 -382 9 -27 36 -89 60 -136
23 -47 43 -92 43 -100 0 -8 4 -19 9 -24 4 -6 16 -41 25 -80 18 -75 58 -161 86
-185 28 -25 55 -79 85 -174 17 -53 40 -102 57 -121 15 -18 28 -38 28 -44 0 -6
4 -11 9 -11 4 0 19 -21 32 -47 13 -27 28 -51 32 -54 5 -3 8 -9 8 -13 -1 -3 6
-22 14 -42 8 -20 15 -39 15 -41 0 -3 23 -36 50 -74 54 -75 67 -99 85 -164 13
-47 37 -87 87 -146 52 -61 71 -102 88 -186 10 -54 37 -131 50 -143 13 -12 66
-87 78 -110 8 -14 24 -64 37 -111 25 -94 57 -174 80 -199 28 -31 66 -143 81
-234 22 -137 39 -181 86 -219 22 -17 61 -50 87 -72 67 -58 84 -65 159 -66 49
-1 78 5 109 20 23 12 49 21 58 21 8 0 15 4 15 8 0 5 39 28 87 53 121 62 212
151 237 234 10 33 27 76 37 95 11 19 19 40 19 47 0 7 6 16 14 20 16 9 58 89
62 118 2 11 10 67 18 125 19 132 14 611 -7 769 -8 57 -13 115 -11 127 1 13 -1
26 -6 29 -14 8 14 54 36 59 27 7 94 -12 118 -32 26 -24 61 -98 76 -162 12 -54
54 -140 93 -190 52 -68 61 -134 61 -445 0 -158 -5 -250 -17 -325 -9 -58 -19
-129 -22 -157 -2 -29 -13 -79 -24 -110 -75 -227 -74 -214 -75 -513 -1 -309 1
-321 70 -461 24 -47 45 -97 48 -110 20 -87 26 -109 42 -154 16 -46 48 -98 82
-134 8 -8 36 -60 63 -117 27 -56 68 -125 93 -154 38 -45 61 -94 72 -160 6 -30
51 -156 71 -195 11 -22 33 -83 49 -135 23 -79 28 -114 28 -205 1 -157 -2 -172
-79 -420 -42 -136 -49 -160 -60 -235 -20 -133 -41 -189 -105 -283 -20 -31 -42
-89 -65 -174 -40 -153 -56 -196 -101 -287 -45 -90 -65 -224 -67 -446 -1 -178
12 -253 57 -340 12 -25 53 -104 89 -177 37 -73 75 -137 86 -143 26 -13 184
-64 246 -79 67 -15 127 -17 162 -3 15 5 73 23 128 37 130 36 163 53 210 112
21 26 62 71 90 98 43 42 53 59 58 95 4 25 7 283 9 574 1 291 5 552 10 580 4
28 12 137 18 241 6 105 12 201 14 215 11 76 17 101 37 165 12 39 25 72 29 75
16 11 61 165 80 272 24 140 43 205 73 249 58 87 99 190 122 308 8 39 27 83 55
126 56 89 83 167 99 295 6 47 13 94 16 105 2 11 13 59 23 107 11 48 25 94 31
102 7 8 10 19 7 24 -3 5 3 25 14 44 30 57 39 139 45 423 6 294 9 356 19 408 7
39 30 65 41 47 3 -6 10 -8 15 -5 5 3 12 0 17 -7 4 -7 17 -18 28 -24 47 -26 83
-191 86 -394 1 -74 8 -164 15 -200 14 -71 18 -428 15 -1385 -1 -533 -1 -552
20 -630 12 -44 21 -91 20 -104 -1 -13 3 -29 7 -35 5 -6 10 -27 11 -46 7 -92
28 -213 65 -370 33 -141 38 -153 95 -213 47 -50 72 -85 107 -153 47 -90 347
-122 454 -49 43 29 164 144 203 193 16 21 47 57 70 82 54 57 70 83 90 145 17
49 92 185 110 196 5 3 8 8 7 10 -1 2 3 17 9 33 6 15 23 85 37 155 14 69 36
153 49 186 34 89 34 88 46 183 6 48 13 97 14 109 2 12 6 26 9 31 3 5 10 49 17
98 24 187 30 215 50 235 18 18 20 18 61 0 74 -31 85 -73 113 -431 11 -151 15
-354 14 -890 -1 -486 2 -708 10 -737 6 -23 31 -68 55 -100 24 -32 54 -80 66
-106 13 -27 41 -62 63 -80 23 -18 66 -58 97 -89 58 -61 134 -98 200 -98 17 0
39 -4 48 -9 27 -14 158 -19 272 -10 194 16 291 50 340 119 12 17 40 42 61 56
38 24 68 61 119 144 14 23 40 56 57 73 46 45 54 72 89 286 11 71 14 129 10
185 -4 44 -9 110 -11 146 -32 416 -38 463 -70 541 -14 36 -25 82 -25 108 1 25
-1 72 -2 104 -2 33 0 61 5 64 4 2 5 9 1 14 -3 6 -6 54 -6 107 1 53 1 156 1
227 0 72 0 168 -1 215 0 47 0 96 1 110 1 14 2 123 2 243 -1 217 4 251 40 319
5 9 12 36 15 60 4 24 10 50 15 59 4 9 11 38 14 65 10 77 50 181 87 227 39 48
75 105 103 162 11 22 36 58 57 80 21 22 58 66 83 97 25 32 65 71 89 88 25 16
54 47 67 67 34 58 60 83 106 104 23 10 45 19 48 19 4 0 28 23 54 51 43 46 51
51 78 45 20 -5 33 -15 36 -28 6 -23 -8 -58 -23 -58 -6 0 -10 -7 -10 -15 0 -8
-6 -15 -14 -15 -28 0 -53 -55 -70 -153 -19 -114 -46 -205 -92 -303 -41 -88
-53 -140 -48 -202 5 -49 59 -253 75 -281 5 -9 25 -52 44 -96 41 -91 63 -119
120 -147 41 -21 53 -30 120 -97 51 -50 117 -73 216 -73 103 -1 165 22 260 93
43 33 82 59 87 59 14 0 176 163 189 191 6 13 25 55 43 94 17 38 48 92 69 120
54 71 62 101 76 265 4 41 9 86 12 100 9 43 12 602 3 670 -5 36 -11 115 -14
175 -11 195 -32 322 -64 380 -9 17 -15 32 -15 35 1 3 -4 19 -12 35 -37 87 -59
176 -75 315 -11 94 -59 260 -84 290 -27 33 -76 183 -76 235 0 47 -76 300 -99
329 -27 35 -63 197 -76 346 -3 30 -10 89 -16 130 -7 41 -12 138 -12 215 0 120
3 147 21 187 11 25 19 48 16 50 -2 3 5 13 16 23 11 10 20 15 20 10 0 -4 7 -1
16 6 14 12 20 9 45 -20 29 -35 38 -65 79 -273 5 -26 19 -67 31 -90 20 -39 74
-116 91 -128 4 -3 9 -15 11 -25 1 -11 6 -25 10 -32 4 -7 9 -30 12 -52 5 -57
40 -129 81 -170 19 -19 53 -70 74 -114 43 -86 64 -118 125 -192 23 -27 53 -71
68 -96 24 -42 84 -99 104 -99 4 0 32 -12 61 -27 34 -17 56 -23 62 -17 26 26
30 149 27 844 l-3 725 24 90 c32 118 42 137 121 221 128 138 202 223 245 281
24 32 64 79 89 105 25 25 63 70 85 100 23 29 77 91 121 137 45 46 81 88 81 93
0 6 30 41 68 78 110 112 235 248 245 267 5 10 37 45 70 78 34 34 75 77 90 98
59 78 -136 71 2027 71 1919 1 1935 1 1962 21 15 11 29 31 33 43 3 13 6 552 6
1198 -1 1264 2 1201 -51 1249 -22 20 -36 20 -1949 19 -1828 0 -1928 -1 -1960
-18 -39 -21 -189 -168 -242 -238 -20 -27 -57 -67 -83 -89 -26 -23 -53 -53 -61
-68 -14 -27 -56 -73 -119 -129 -20 -18 -48 -52 -63 -75 -14 -23 -38 -51 -52
-62 -40 -31 -74 -67 -95 -100 -11 -16 -49 -62 -85 -101 -36 -39 -97 -106 -136
-149 -38 -43 -75 -83 -80 -89 -6 -6 -21 -28 -34 -48 -12 -21 -43 -56 -68 -78
-38 -33 -53 -40 -89 -40 -61 0 -90 33 -96 108 -3 32 -4 554 -3 1162 2 998 4
1111 19 1170 20 79 40 109 91 134 38 19 65 20 552 20 l511 1 27 25 c15 14 31
33 36 42 14 27 12 1200 -2 1232 -7 15 -33 36 -65 51 -29 14 -63 38 -75 53 -20
25 -21 34 -14 122 30 373 -8 948 -70 1062 -8 14 -15 33 -15 42 0 9 -4 16 -8
16 -15 0 -59 130 -77 225 -23 120 -38 159 -87 229 -23 33 -58 106 -79 164 -33
88 -73 162 -100 182 -13 10 -68 117 -90 174 -13 37 -39 77 -66 106 -25 26 -50
56 -56 67 -7 11 -20 36 -31 54 -16 29 -78 109 -111 145 -6 6 -31 40 -55 75
-25 35 -68 86 -95 114 -28 27 -68 76 -90 109 -21 32 -53 68 -70 79 -17 11 -51
47 -76 79 -24 33 -66 77 -92 98 -27 21 -66 61 -87 88 -22 27 -57 60 -78 75
-22 14 -63 53 -92 86 -29 33 -72 72 -96 86 -23 14 -64 50 -89 80 -26 30 -51
55 -56 55 -16 0 -114 68 -144 100 -16 18 -73 61 -126 95 -53 35 -113 82 -134
104 -21 22 -65 54 -98 72 -33 17 -76 48 -96 68 -49 49 -91 78 -125 87 -44 11
-210 108 -246 144 -3 3 -28 13 -56 22 -92 32 -119 46 -181 96 -38 30 -96 63
-145 82 -46 19 -110 55 -145 82 -36 27 -102 64 -157 87 -83 33 -146 72 -194
118 -7 7 -18 13 -24 13 -5 0 -24 7 -41 14 -18 8 -59 24 -91 35 -33 12 -77 33
-99 48 -93 65 -124 82 -167 94 -81 21 -195 61 -210 73 -53 44 -166 96 -207 96
-12 0 -32 4 -45 9 -13 5 -54 19 -93 32 -71 23 -128 49 -110 49 5 0 -11 11 -37
25 -45 24 -136 51 -292 89 -40 9 -103 36 -147 61 -78 45 -108 55 -234 81 -103
20 -141 33 -230 80 -86 44 -189 79 -270 89 -71 9 -158 38 -244 80 -94 46 -136
60 -241 80 -169 32 -226 48 -290 82 -97 51 -168 72 -350 99 -105 16 -195 36
-250 55 -160 58 -255 87 -300 93 -123 17 -190 26 -245 31 -33 4 -85 13 -115
21 -30 9 -62 17 -70 19 -8 2 -37 12 -65 22 -54 21 -178 55 -262 72 -192 40
-239 54 -272 82 -19 15 -22 22 -12 28 7 5 12 12 11 17 -1 5 13 32 30 60 17 28
41 94 55 148 14 54 28 102 31 108 4 6 11 49 15 96 5 47 12 88 17 91 4 3 8 11
9 16 0 6 11 58 23 117 11 59 20 113 19 120 -2 11 6 139 16 238 6 59 15 171 20
255 3 44 7 91 10 105 8 42 49 165 57 170 9 7 49 120 42 120 -3 0 0 9 6 21 27
49 54 193 65 339 4 47 11 90 15 95 5 6 8 13 8 18 -1 21 15 81 29 114 9 21 18
47 20 58 2 11 7 43 13 70 5 28 8 68 6 90 -7 100 -44 115 -323 134 -66 5 -127
12 -135 17 -22 14 -38 16 -178 19 -111 3 -158 9 -265 35 -71 18 -148 36 -170
41 -79 17 -263 38 -435 49 -215 14 -431 42 -529 70 -40 11 -76 19 -79 16 -2
-3 -13 -1 -23 5 -18 9 -130 31 -254 50 -66 9 -249 25 -395 34 -212 13 -298 26
-577 91 -147 33 -388 63 -638 79 -123 7 -318 33 -364 47 -19 6 -58 24 -85 41
-75 44 -148 63 -265 66 -57 1 -120 4 -140 5 -20 1 -67 -1 -106 -4z m555 -955
c63 -8 147 -18 185 -24 39 -5 122 -12 185 -16 63 -4 129 -9 145 -11 17 -2 55
-6 85 -9 85 -9 218 -31 290 -49 36 -9 81 -21 100 -25 19 -5 44 -11 55 -14 104
-26 260 -47 405 -57 96 -6 231 -17 300 -25 127 -15 157 -22 380 -76 150 -37
189 -43 435 -63 105 -9 219 -19 255 -22 118 -10 253 -34 385 -69 72 -19 148
-36 170 -39 239 -30 278 -64 256 -229 -6 -45 -13 -120 -16 -167 -14 -197 -23
-286 -35 -325 -9 -30 -15 -69 -25 -161 -3 -28 -17 -82 -31 -120 -43 -117 -45
-133 -75 -522 -16 -208 -15 -208 -179 -205 -138 3 -355 37 -403 64 -78 43
-299 84 -567 104 -304 23 -331 27 -580 90 -157 40 -362 67 -610 80 -224 12
-510 49 -580 75 -14 5 -41 11 -60 14 -50 8 -130 25 -139 30 -4 3 -63 10 -131
16 -69 6 -149 13 -179 16 -29 2 -127 9 -217 14 -244 14 -282 42 -240 180 7 25
17 108 21 185 4 77 11 172 16 210 6 39 12 88 14 110 3 22 10 64 16 95 5 30 12
66 14 80 9 59 26 125 35 134 6 6 10 19 10 31 0 12 4 25 9 31 5 5 11 53 15 106
3 53 13 132 21 175 8 43 15 121 15 173 0 118 28 192 82 215 41 18 31 18 168 0z
m-1335 -2246 c39 -4 132 -16 208 -25 75 -9 137 -21 137 -26 0 -5 5 -6 10 -3 6
3 10 -1 10 -10 0 -11 -5 -15 -15 -11 -9 3 -15 0 -15 -10 0 -11 -6 -15 -20 -11
-10 3 -21 0 -24 -7 -3 -8 -7 -7 -14 2 -8 11 -10 11 -15 -1 -5 -13 -53 -25
-132 -32 -11 -2 -27 -5 -35 -8 -30 -11 -229 -34 -364 -42 -61 -4 -130 -10
-155 -15 -25 -4 -49 -6 -52 -4 -4 2 -31 -1 -60 -7 -30 -6 -79 -12 -109 -14
-61 -4 -95 -9 -125 -18 -11 -3 -31 -8 -45 -11 -14 -2 -56 -12 -95 -21 -38 -9
-83 -18 -100 -21 -16 -2 -41 -6 -55 -9 -27 -5 -74 -10 -210 -20 -122 -9 -238
-31 -293 -54 -26 -11 -47 -18 -47 -14 0 3 -9 -2 -21 -13 -12 -10 -22 -17 -23
-15 0 2 -17 -3 -36 -11 -37 -17 -94 -30 -200 -47 -164 -25 -209 -35 -270 -59
-36 -14 -70 -29 -75 -33 -32 -24 -158 -65 -230 -75 -137 -18 -285 -63 -285
-85 0 -5 -5 -9 -11 -9 -6 0 -24 -9 -40 -21 -26 -18 -77 -35 -250 -83 -30 -9
-89 -38 -130 -65 -41 -27 -99 -57 -129 -66 -118 -36 -172 -59 -215 -91 -24
-19 -47 -34 -50 -34 -4 0 -19 -8 -33 -19 -15 -10 -51 -27 -80 -37 -30 -11 -84
-43 -120 -71 -37 -29 -110 -74 -162 -99 -52 -26 -114 -64 -137 -85 -24 -22
-79 -57 -123 -78 -86 -42 -124 -67 -173 -113 -18 -16 -61 -45 -97 -63 -36 -18
-78 -48 -95 -65 -16 -18 -64 -55 -105 -83 -41 -28 -86 -64 -100 -81 -35 -43
-50 -55 -116 -103 -33 -23 -93 -74 -134 -113 -41 -40 -89 -84 -107 -99 -27
-22 -98 -104 -168 -193 -17 -21 -48 -49 -133 -120 -8 -6 -33 -21 -56 -33 l-42
-22 -75 19 c-93 24 -250 45 -399 53 -270 14 -504 45 -650 84 -157 43 -355 74
-555 86 -362 22 -408 28 -635 85 -47 12 -89 23 -95 24 -30 7 -92 47 -104 68
-7 14 -11 42 -9 64 3 35 9 43 68 86 36 25 91 68 123 95 32 26 82 65 110 85 29
21 57 42 64 48 7 5 15 10 18 10 3 0 22 18 42 41 20 22 59 56 87 74 28 19 79
61 112 92 40 37 83 66 120 81 32 13 94 49 138 81 47 33 107 65 141 76 58 19
99 42 214 124 29 21 76 44 104 51 57 14 99 37 173 92 28 21 57 38 65 38 8 0
23 7 33 15 11 8 28 15 38 15 39 0 134 42 210 91 62 41 99 57 175 76 96 25 120
35 263 111 63 34 99 44 223 67 134 24 234 55 352 110 36 17 152 45 215 51 168
18 226 33 370 97 98 43 187 60 415 77 72 6 144 12 160 14 88 13 217 40 270 57
179 58 298 77 592 94 54 3 127 10 163 15 36 5 160 14 275 20 116 6 233 13 260
15 28 3 111 9 185 15 74 6 158 13 185 16 76 8 120 12 235 18 206 12 276 16
350 21 99 8 195 13 370 21 80 4 147 8 149 11 9 7 948 1 1016 -8z m7087 -15773
c9 -11 20 -38 23 -59 9 -52 -4 -155 -24 -187 -14 -23 -19 -25 -38 -15 -13 7
-20 15 -16 19 4 4 3 10 -3 14 -18 12 -44 91 -44 136 0 41 18 101 36 119 12 11
47 -3 66 -27z m26 -315 c10 -6 9 -11 -4 -22 -14 -11 -16 -11 -10 0 5 8 3 17
-5 22 -8 5 -9 9 -4 9 6 0 16 -4 23 -9z m22 -41 c0 -5 -4 -10 -10 -10 -5 0 -10
5 -10 10 0 6 5 10 10 10 6 0 10 -4 10 -10z"/>
<path d="M9287 18523 c-6 -16 -14 -30 -18 -33 -7 -5 -26 -109 -33 -178 -3 -23
-7 -45 -9 -50 -3 -4 -8 -43 -12 -87 -9 -104 -10 -113 -34 -223 -19 -82 -21
-116 -17 -295 5 -208 6 -219 31 -372 8 -49 21 -148 30 -220 19 -152 29 -196
58 -247 23 -41 37 -46 62 -22 24 24 41 72 53 154 18 111 16 1327 -2 1435 -22
139 -77 209 -109 138z"/>
<path d="M31766 14375 c-11 -43 -46 -89 -93 -120 -63 -43 -99 -120 -118 -255
-17 -116 -30 -166 -82 -315 -39 -113 -46 -147 -45 -225 2 -80 20 -156 58 -237
18 -40 40 -94 49 -120 45 -132 67 -157 145 -160 66 -2 118 19 137 57 9 18 12
188 10 710 l-2 685 -26 3 c-21 3 -28 -2 -33 -23z"/>
<path d="M17315 10499 c-73 -9 -95 -13 -315 -54 -245 -47 -322 -64 -336 -76
-49 -40 -30 -183 41 -314 44 -80 52 -104 96 -299 41 -185 90 -206 409 -176 83
8 195 11 291 7 211 -8 254 -22 367 -125 47 -42 102 -99 122 -127 21 -27 54
-68 73 -89 22 -24 48 -73 68 -125 18 -47 40 -97 49 -111 77 -115 87 -137 116
-275 15 -73 51 -183 64 -200 5 -5 11 -27 15 -48 6 -31 3 -44 -18 -76 -44 -66
-79 -77 -247 -73 -80 2 -203 4 -275 3 -2394 -14 -2470 -15 -2498 -34 -15 -10
-37 -39 -50 -65 -21 -46 -22 -56 -22 -367 0 -308 1 -321 21 -360 45 -83 31
-79 353 -85 l286 -5 46 -27 c42 -25 53 -40 73 -101 3 -10 6 -278 7 -597 1
-572 1 -579 -20 -608 -11 -16 -42 -40 -68 -53 l-48 -24 -535 0 c-294 0 -547 3
-562 8 -36 10 -97 63 -110 96 -7 17 -10 155 -9 386 2 385 -10 575 -48 757 -11
51 -30 147 -41 213 -24 133 -45 189 -93 249 -18 23 -52 74 -76 115 -58 98 -97
140 -212 227 -54 39 -106 81 -118 93 -28 28 -84 55 -156 76 -33 9 -103 37
-155 60 -183 84 -217 89 -605 90 -411 0 -486 -10 -615 -85 -25 -15 -85 -41
-133 -58 -116 -42 -135 -53 -182 -102 -22 -23 -64 -60 -93 -81 -40 -31 -60
-56 -88 -112 -20 -40 -52 -94 -71 -121 -60 -84 -74 -128 -85 -278 -11 -142 -1
-352 21 -428 6 -19 31 -71 57 -115 25 -44 63 -114 84 -156 30 -59 50 -84 92
-116 29 -22 79 -65 110 -96 44 -42 75 -62 130 -82 113 -42 139 -54 197 -92 84
-56 96 -59 491 -115 66 -10 80 -9 114 7 65 31 95 94 111 237 3 31 12 98 21
150 8 51 17 121 21 155 6 61 5 63 -28 96 -36 36 -71 45 -237 66 -90 11 -121
24 -169 70 -17 17 -59 53 -92 81 -52 43 -63 58 -77 107 -18 61 -15 138 6 185
7 15 29 38 49 51 176 117 198 127 283 127 73 0 230 -66 296 -124 49 -43 140
-160 158 -201 31 -74 44 -278 47 -749 3 -253 0 -474 -4 -492 -21 -74 -70 -106
-182 -118 -53 -6 -90 -19 -175 -62 -59 -30 -119 -67 -133 -83 -14 -15 -48 -79
-74 -142 -62 -145 -69 -217 -31 -324 13 -38 40 -116 60 -173 36 -102 73 -168
116 -207 12 -11 39 -45 60 -77 86 -128 328 -350 440 -401 36 -16 86 -47 112
-69 84 -70 135 -82 348 -83 207 0 227 5 316 84 23 20 53 44 68 54 62 43 94
114 132 302 34 162 47 199 87 242 70 76 44 73 614 73 l509 0 50 -24 c61 -30
89 -59 109 -115 13 -38 15 -145 15 -789 l0 -746 23 -33 c12 -19 37 -38 57 -45
24 -9 163 -13 455 -16 446 -3 494 1 518 42 9 16 13 465 14 1960 3 1989 3 1975
40 2033 15 22 105 49 125 37 5 -3 229 -7 496 -8 l487 -2 46 -27 c88 -52 80
154 82 -2024 l2 -1931 25 -27 c49 -52 87 -56 559 -53 422 3 431 3 451 24 12
12 25 39 30 60 5 22 9 870 9 1961 0 1915 0 1923 21 1962 11 22 30 46 42 52 15
8 131 10 417 8 218 -2 1388 -3 2601 -2 1276 2 2219 -1 2237 -6 40 -12 70 -42
94 -95 15 -35 19 -69 20 -196 1 -167 -2 -178 -65 -224 -27 -21 -37 -21 -1066
-26 l-1038 -5 -27 -25 c-15 -14 -46 -65 -70 -115 -24 -49 -53 -100 -64 -112
-25 -27 -54 -92 -77 -171 -9 -31 -36 -96 -59 -144 -63 -126 -68 -150 -41 -190
12 -18 51 -50 86 -70 36 -21 94 -63 130 -93 36 -31 93 -78 126 -105 34 -27 71
-64 82 -82 11 -18 47 -59 80 -91 61 -58 74 -82 137 -252 14 -38 35 -90 45
-115 37 -87 42 -185 15 -283 -16 -58 -57 -119 -125 -188 -92 -95 -118 -104
-286 -104 l-121 0 -104 52 c-57 29 -128 61 -157 73 -64 24 -100 46 -130 80
-12 14 -26 28 -30 32 -206 202 -276 284 -321 374 -19 38 -58 98 -86 134 -28
36 -61 92 -74 125 -32 87 -61 142 -98 191 -37 48 -63 104 -83 179 -18 69 -46
129 -84 184 -33 47 -65 133 -86 231 -6 30 -34 102 -62 159 -44 89 -57 107 -97
133 -42 27 -51 29 -108 24 -64 -5 -128 -30 -218 -83 -59 -35 -140 -62 -278
-94 -155 -36 -211 -83 -232 -201 -11 -58 20 -166 70 -246 48 -79 63 -115 104
-259 19 -67 39 -116 59 -140 40 -52 60 -93 96 -198 32 -91 73 -175 87 -175 11
0 63 -97 84 -155 19 -52 49 -99 96 -150 15 -16 46 -65 69 -108 23 -43 63 -101
89 -130 27 -29 65 -80 87 -114 21 -34 55 -74 75 -90 20 -16 64 -61 98 -101 35
-39 67 -72 71 -72 5 0 37 -27 72 -61 79 -75 108 -98 181 -134 31 -17 86 -53
121 -81 60 -48 99 -66 206 -94 25 -7 94 -36 155 -65 171 -83 264 -96 663 -96
385 1 454 12 627 100 61 31 133 64 162 74 49 17 71 32 192 136 121 103 250
257 251 298 0 15 36 81 56 103 72 83 105 393 69 663 -14 105 -38 169 -95 257
-9 14 -30 61 -45 105 -16 44 -38 94 -49 111 -12 17 -42 62 -68 101 -26 39 -52
89 -57 112 -8 37 -6 45 12 67 12 14 38 28 57 32 19 4 228 5 464 2 l428 -5 32
-37 c60 -69 59 -50 60 -1355 l1 -1183 25 -23 c53 -49 69 -51 489 -55 417 -4
501 2 553 39 l28 20 0 1945 c0 1889 1 1946 19 1982 40 79 30 76 338 82 l275 5
33 38 c55 63 60 99 60 422 l0 290 -26 50 c-15 27 -39 59 -53 70 -27 20 -40 20
-3174 27 -1731 4 -3199 8 -3262 10 -63 1 -230 -2 -370 -6 -247 -8 -257 -8
-319 13 -160 55 -182 78 -211 227 -26 135 -33 157 -84 260 -26 52 -58 144 -79
223 -28 105 -46 150 -82 209 -26 41 -62 117 -80 168 -39 107 -49 129 -81 167
-34 40 -89 137 -103 180 -7 19 -36 62 -65 95 -29 33 -66 77 -82 98 -51 69
-227 234 -284 266 -30 17 -73 46 -95 63 -75 60 -128 83 -235 105 -58 11 -157
34 -220 50 -177 46 -336 58 -495 39z"/>
</g>
</svg>
